<svg xmlns="http://www.w3.org/2000/svg" viewBox="0 0 264 100" width="264" height="100">
<defs>
    <radialGradient id="hivis" gradientUnits="userSpaceOnUse" cx="44" cy="58" r="44">
      <stop offset="0" stop-color="#FFB300"/><stop offset="1" stop-color="#FF5A1F"/>
    </radialGradient>
    <radialGradient id="glow" cx="0.5" cy="0.5" r="0.5">
      <stop offset="0" stop-color="#FFE9A8" stop-opacity="0.95"/>
      <stop offset="0.5" stop-color="#FFC53D" stop-opacity="0.4"/>
      <stop offset="1" stop-color="#FFC53D" stop-opacity="0"/>
    </radialGradient>
  </defs>
  <g>
    <path d="M15 72 L15 52 L44 33 L73 52 L73 72" fill="none" stroke="url(#hivis)" stroke-width="4.2" stroke-linecap="round" stroke-linejoin="round"/>
    <path d="M27.2 66.1 L27.2 54.5 L44 43.5 L60.8 54.5 L60.8 66.1" fill="none" stroke="url(#hivis)" stroke-width="3.1" stroke-linecap="round" stroke-linejoin="round"/>
    <path d="M35.3 56.2 L44 50.5 L52.7 56.2" fill="none" stroke="url(#hivis)" stroke-width="2.4" stroke-linecap="round" stroke-linejoin="round"/>
    <circle cx="44" cy="58" r="8.5" fill="url(#glow)"/>
    <circle cx="44" cy="58" r="3.5" fill="#FFF7E0"/>
  </g>
  <path transform="translate(92.00,70.50) scale(0.056000,-0.056000)" d="M60 0V725H259V0Z" fill="#F2F5F8"/>
  <path transform="translate(108.26,70.50) scale(0.056000,-0.056000)" d="M333 -12Q243 -12 176.5 18.5Q110 49 73.0 110.5Q36 172 36 264Q36 357 73.0 418.0Q110 479 176.5 509.5Q243 540 333 540Q423 540 490.0 509.5Q557 479 594.0 418.0Q631 357 631 264Q631 172 594.0 110.5Q557 49 490.0 18.5Q423 -12 333 -12ZM333 123Q368 123 390.0 136.5Q412 150 422.0 175.0Q432 200 432 235V292Q432 327 422.0 352.5Q412 378 390.0 391.5Q368 405 333 405Q298 405 276.5 391.5Q255 378 245.0 352.5Q235 327 235 292V235Q235 200 245.0 175.0Q255 150 276.5 136.5Q298 123 333 123Z" fill="#F2F5F8"/>
  <path transform="translate(144.02,70.50) scale(0.056000,-0.056000)" d="M333 -12Q243 -12 176.5 18.5Q110 49 73.0 110.5Q36 172 36 264Q36 357 73.0 418.0Q110 479 176.5 509.5Q243 540 333 540Q423 540 490.0 509.5Q557 479 594.0 418.0Q631 357 631 264Q631 172 594.0 110.5Q557 49 490.0 18.5Q423 -12 333 -12ZM333 123Q368 123 390.0 136.5Q412 150 422.0 175.0Q432 200 432 235V292Q432 327 422.0 352.5Q412 378 390.0 391.5Q368 405 333 405Q298 405 276.5 391.5Q255 378 245.0 352.5Q235 327 235 292V235Q235 200 245.0 175.0Q255 150 276.5 136.5Q298 123 333 123Z" fill="#F2F5F8"/>
  <path transform="translate(179.77,70.50) scale(0.056000,-0.056000)" d="M259 -12Q189 -12 139.0 18.5Q89 49 62.5 110.5Q36 172 36 265Q36 357 62.5 418.0Q89 479 139.0 509.5Q189 540 259 540Q287 540 313.5 533.5Q340 527 362.5 513.5Q385 500 400 479H407V725H606V0H444L430 75H423Q395 30 353.0 9.0Q311 -12 259 -12ZM321 135Q352 135 371.5 150.0Q391 165 400.0 190.5Q409 216 409 247V280Q409 303 404.0 323.5Q399 344 388.5 359.5Q378 375 361.0 384.0Q344 393 321 393Q290 393 271.0 380.0Q252 367 243.5 344.0Q235 321 235 290V237Q235 206 243.5 183.0Q252 160 271.0 147.5Q290 135 321 135Z" fill="#F2F5F8"/>
  <path transform="translate(215.52,70.50) scale(0.056000,-0.056000)" d="M304 -12Q256 -12 208.5 -2.5Q161 7 121.5 27.5Q82 48 58.0 80.0Q34 112 34 158Q34 161 34.0 164.5Q34 168 35 172H220Q219 169 219.0 166.0Q219 163 219 161Q220 143 231.5 131.0Q243 119 262.0 113.0Q281 107 304 107Q318 107 337.5 109.0Q357 111 372.0 119.0Q387 127 387 146Q387 163 369.5 171.5Q352 180 323.5 185.5Q295 191 261 197Q224 203 186.5 212.5Q149 222 117.0 239.5Q85 257 65.5 286.0Q46 315 46 361Q46 413 67.5 448.0Q89 483 126.5 503.5Q164 524 211.5 532.5Q259 541 311 541Q356 541 400.5 532.5Q445 524 482.0 505.5Q519 487 541.0 457.0Q563 427 563 384Q563 381 563.0 376.5Q563 372 562 370H379V378Q379 393 368.5 402.5Q358 412 341.5 416.5Q325 421 308 421Q302 421 290.0 420.5Q278 420 265.5 417.0Q253 414 244.5 407.0Q236 400 236 387Q236 375 247.5 367.5Q259 360 278.5 355.5Q298 351 322 346Q360 339 404.0 332.5Q448 326 487.5 310.5Q527 295 552.0 263.5Q577 232 577 175Q577 121 555.0 84.5Q533 48 495.0 27.0Q457 6 407.5 -3.0Q358 -12 304 -12Z" fill="#F2F5F8"/>
</svg>